<?xml version="1.0" encoding="utf-8"?>
<!-- Generator: Adobe Illustrator 27.1.1, SVG Export Plug-In . SVG Version: 6.00 Build 0)  -->
<svg version="1.1" id="sw-js-blob-svg" xmlns="http://www.w3.org/2000/svg" xmlns:xlink="http://www.w3.org/1999/xlink" x="0px"
	 y="0px" viewBox="0 0 100 100" style="enable-background:new 0 0 100 100;" xml:space="preserve">
<style type="text/css">
	.st0{fill:#754CE8;}
</style>
<path class="st0" d="M25.5,39.3c6.7-3.3,16.2-1.6,24.4-4.7C58.1,31.4,65,23.3,70,23.9c4.9,0.5,7.9,9.6,10.5,17
	c2.7,7.3,5,13,1.5,16.1s-12.7,3.7-17.3,5.1c-4.5,1.4-4.4,3.7-5.8,6.3c-1.3,2.6-4.1,5.5-8.4,6.9c-4.2,1.3-9.9,1-16.8-1.9
	c-6.8-2.9-14.9-8.4-17-15.4C14.7,51.1,18.7,42.6,25.5,39.3z"/>
</svg>
