<!--?xml version="1.0" standalone="no"?-->
              <svg id="sw-js-blob-svg" viewBox="0 0 100 100" xmlns="http://www.w3.org/2000/svg" version="1.1">
                    <defs> 
                        <linearGradient id="sw-gradient" x1="0" x2="1" y1="1" y2="0">
                            <stop id="stop1" stop-color="rgba(255, 208, 0, 1)" offset="0%"></stop>
                            <stop id="stop2" stop-color="rgba(255, 208, 0, 1)" offset="100%"></stop>
                        </linearGradient>
                    </defs>
                <path fill="url(#sw-gradient)" d="M17.4,-26C22.4,-20.4,26,-15,30,-8.4C34,-1.8,38.4,6.1,36.5,11.9C34.7,17.7,26.5,21.5,19.4,26.9C12.2,32.3,6.1,39.3,-0.2,39.5C-6.4,39.7,-12.8,33.1,-18.1,27.1C-23.4,21.1,-27.6,15.7,-30.3,9.4C-33,3.1,-34.2,-4.2,-33.7,-12.5C-33.1,-20.8,-30.9,-30.1,-25,-35.4C-19.1,-40.7,-9.6,-41.9,-1.7,-39.6C6.3,-37.3,12.5,-31.6,17.4,-26Z" width="100%" height="100%" transform="translate(50 50)" stroke-width="0" style="transition: all 0.3s ease 0s;" stroke="url(#sw-gradient)"></path>
              </svg>