<svg xmlns="http://www.w3.org/2000/svg" xmlns:xlink="http://www.w3.org/1999/xlink" width="71.594" height="52.687" viewBox="0 0 71.594 52.687">
  <defs>
    <clipPath id="clip-path">
      <path id="Pfad_5" data-name="Pfad 5" d="M0,21.319H68.449V0H0Zm0,0" fill="#121212"/>
    </clipPath>
    <clipPath id="clip-path-2">
      <path id="Pfad_7" data-name="Pfad 7" d="M0,20.059H19.354V0H0Zm0,0" transform="translate(0 0)" fill="#121212"/>
    </clipPath>
  </defs>
  <g id="arrow-geschwungen" transform="translate(71.594 18.463) rotate(150)">
    <g id="Gruppe_13" data-name="Gruppe 13" transform="translate(0 0)" clip-path="url(#clip-path)">
      <path id="Pfad_4" data-name="Pfad 4" d="M67.581,21.083h-.1a1.719,1.719,0,0,1-1.063-.646,93.473,93.473,0,0,0-8.036-9.324A33.13,33.13,0,0,0,52.806,6.88Q46.712,2.9,36.352,1.909A36.854,36.854,0,0,0,20.684,4.389a54.827,54.827,0,0,0-9.53,4.542,69.78,69.78,0,0,0-8.425,6.181,1.37,1.37,0,0,1-.755.166A4.564,4.564,0,0,1,.46,14.671a.513.513,0,0,0-.46.16Q5.012,9.392,16.014,4.27A45.8,45.8,0,0,1,33.482.015,39.407,39.407,0,0,1,44.3,1.361,36.856,36.856,0,0,1,54.792,5.88a44.712,44.712,0,0,1,10.285,9.146q4.575,5.549,2.5,6.057" transform="translate(-0.001 0.146)" fill="#121212"/>
    </g>
    <g id="Gruppe_14" data-name="Gruppe 14" transform="translate(50.357 2.386)" clip-path="url(#clip-path-2)">
      <path id="Pfad_6" data-name="Pfad 6" d="M16.876,19.692l-.079,0a2.744,2.744,0,0,1-1.315-.3q-7.761-3.71-9.669-4.462-1.2-.439-4.572-1.354a7.007,7.007,0,0,1-.723-.251Q.013,13.1.053,12.857A2.871,2.871,0,0,1,0,12.129L.216,9.672c0-.178-.039-.273-.107-.291A6.222,6.222,0,0,1,1.756,9.4,22.188,22.188,0,0,1,7,10.75q1.043.357,6.913,3.6l-3.33-8.39q-.7-1.9-1.308-3.969a.681.681,0,0,1,.03-.455q-.022-.123.526-.651A4.258,4.258,0,0,1,11.886,0c.335-.016.536.041.6.171a31.661,31.661,0,0,1,2.14,4.2q1.418,3.313,4.025,11.819a3.1,3.1,0,0,1-.054,2.294q-.929,1.24-1.724,1.2" transform="translate(0.266 0.293)" fill="#121212"/>
    </g>
  </g>
</svg>
