<svg xmlns="http://www.w3.org/2000/svg" width="9.427" height="10.474" viewBox="0 0 9.427 10.474">
  <path id="date_range_FILL1_wght400_GRAD0_opsz48" d="M8.435,10.363a.514.514,0,1,1,.373-.151A.507.507,0,0,1,8.435,10.363Zm2.317,0a.514.514,0,1,1,.373-.151A.507.507,0,0,1,10.753,10.363Zm2.226,0a.514.514,0,1,1,.373-.151A.507.507,0,0,1,12.978,10.363ZM6.786,14.474A.805.805,0,0,1,6,13.688V5.571a.805.805,0,0,1,.786-.786h.851V4h.851v.786h4.451V4h.851v.786h.851a.805.805,0,0,1,.786.786v8.117a.805.805,0,0,1-.786.786Zm0-.786h7.855V8.059H6.786Z" transform="translate(-6 -4)"/>
</svg>
